<?xml version="1.0" encoding="UTF-8" standalone="no"?>
<!-- Creator: CorelDRAW -->

<svg
   xmlns:dc="http://purl.org/dc/elements/1.1/"
   xmlns:cc="http://creativecommons.org/ns#"
   xmlns:rdf="http://www.w3.org/1999/02/22-rdf-syntax-ns#"
   xmlns:svg="http://www.w3.org/2000/svg"
   xmlns="http://www.w3.org/2000/svg"
   xmlns:xlink="http://www.w3.org/1999/xlink"
   xmlns:sodipodi="http://sodipodi.sourceforge.net/DTD/sodipodi-0.dtd"
   xmlns:inkscape="http://www.inkscape.org/namespaces/inkscape"
   xml:space="preserve"
   width="213.25891mm"
   height="37.881905mm"
   style="clip-rule:evenodd;fill-rule:evenodd;image-rendering:optimizeQuality;shape-rendering:geometricPrecision;text-rendering:geometricPrecision"
   viewBox="0 0 212.75628 37.881903"
   version="1.1"
   id="svg5816"
   sodipodi:docname="AlfaDruckLogo.svg"
   inkscape:version="0.92.4 (5da689c313, 2019-01-14)"><metadata
   id="metadata5820"><rdf:RDF><cc:Work
       rdf:about=""><dc:format>image/svg+xml</dc:format><dc:type
         rdf:resource="http://purl.org/dc/dcmitype/StillImage" /><dc:title></dc:title></cc:Work></rdf:RDF></metadata><sodipodi:namedview
   pagecolor="#ffffff"
   bordercolor="#666666"
   borderopacity="1"
   objecttolerance="10"
   gridtolerance="10"
   guidetolerance="10"
   inkscape:pageopacity="0"
   inkscape:pageshadow="2"
   inkscape:window-width="1310"
   inkscape:window-height="704"
   id="namedview5818"
   showgrid="false"
   viewbox-width="296.3"
   viewbox-x="0"
   fit-margin-top="0"
   fit-margin-left="0"
   fit-margin-right="0"
   fit-margin-bottom="0"
   inkscape:zoom="1.1893651"
   inkscape:cx="125.43997"
   inkscape:cy="63.725042"
   inkscape:window-x="56"
   inkscape:window-y="27"
   inkscape:window-maximized="1"
   inkscape:current-layer="_450465568"
   showborder="false" />
 <defs
   id="defs5556"><linearGradient
     id="linearGradient4851"
     gradientUnits="userSpaceOnUse"
     x1="155.41499"
     y1="44.404301"
     x2="155.41499"
     y2="52.073799"
     spreadMethod="pad">
   <stop
   offset="0"
   style="stop-color:#FFFFCC"
   id="stop4847" />
   <stop
   offset="1"
   style="stop-color:#ffff66;stop-opacity:1"
   id="stop4849" />
  </linearGradient><linearGradient
     id="id1-3"
     gradientUnits="userSpaceOnUse"
     x1="155.41499"
     y1="44.404301"
     x2="155.41499"
     y2="52.073799"
     spreadMethod="pad">
   <stop
   offset="0"
   style="stop-color:#FFFFCC"
   id="stop4842" />
   <stop
   offset="1"
   style="stop-color:#FFFF66"
   id="stop4844" />
  </linearGradient><linearGradient
     spreadMethod="pad"
     y2="52.073799"
     x2="155.41499"
     y1="44.404301"
     x1="155.41499"
     gradientUnits="userSpaceOnUse"
     id="id1-3-5">
   <stop
   id="stop1115"
   style="stop-color:#FFFFCC"
   offset="0" />
   <stop
   id="stop1117"
   style="stop-color:#FFFF66"
   offset="1" />
  </linearGradient><style
     type="text/css"
     id="style5544">
   <![CDATA[
    @font-face { font-family:"Euromode";src:url("#FontID1") format(svg)}
    @font-face { font-family:"Arial Narrow";src:url("#FontID0") format(svg)}
    .str0 {stroke:black;stroke-width:0.0762}
    .str2 {stroke:aqua;stroke-width:0.0762}
    .str5 {stroke:#FF99CC;stroke-width:0.0762}
    .str1 {stroke:white;stroke-width:0.0762}
    .str3 {stroke:white;stroke-width:0.1764}
    .str4 {stroke:black;stroke-width:0.7056}
    .str6 {stroke:white;stroke-linecap:round;stroke-linejoin:round}
    .fil8 {fill:none}
    .fil13 {fill:none;fill-rule:nonzero}
    .fil10 {fill:black}
    .fil3 {fill:blue}
    .fil5 {fill:aqua}
    .fil4 {fill:#663333}
    .fil9 {fill:red}
    .fil11 {fill:fuchsia}
    .fil0 {fill:white}
    .fil6 {fill:#33CC66}
    .fil17 {fill:red}
    .fil15 {fill:#FF0033}
    .fil2 {fill:yellow}
    .fil16 {fill:white;fill-rule:nonzero}
    .fil14 {fill:black;fill-rule:nonzero}
    .fil7 {fill:#0066FF;fill-rule:nonzero}
    .fil12 {fill:url(#id0)}
    .fil1 {fill:url(#id1)}
    .fnt2 {font-weight:bold;font-size:7.0572;font-family:'Euromode'}
    .fnt0 {font-weight:bold;font-size:7.4238;font-family:'Arial Narrow'}
    .fnt1 {font-weight:bold;font-size:9.8772;font-family:'Euromode'}
   ]]>
  </style><linearGradient
     id="id1-3-6"
     gradientUnits="userSpaceOnUse"
     x1="155.41499"
     y1="44.404301"
     x2="155.41499"
     y2="52.073799"
     spreadMethod="pad"
     xlink:href="#linearGradient4851">
   <stop
   offset="0"
   style="stop-color:#ffffcc;stop-opacity:0.01132075"
   id="stop5551" />
   <stop
   offset="1"
   style="stop-color:#FFFF66"
   id="stop5553" />
  </linearGradient></defs>
 <g
   id="Ebene_x0020_1"
   transform="translate(-49.036503,-35.4565)">
  <metadata
   id="CorelCorpID_0Corel-Layer" />
  <g
   id="_450465568">
   
   
   
   
   
   
   
   
   
   
   
   
   
   
   
   
   
   
   
   
   
   
   
   
   
   
   
   
   
   
   <g
   id="g4917"
   transform="matrix(1,0,-0.17632698,1,-17.103175,-14.459745)"><polygon
     style="opacity:1;fill:url(#id1-3-6);fill-opacity:1;stroke:none;stroke-width:0.07619999;stroke-miterlimit:4;stroke-dasharray:none;stroke-opacity:1"
     points="48.7851,61.0217 48.7851,35.4565 262.044,35.4565 262.044,61.0217 "
     class="fil1 str1"
     id="_450474376" /><g
     id="g199"><g
       id="g5569">
    <path
   id="_450474160"
   class="fil8 str3"
   d="m 79.5393,71.4266 h -6.0747 v -8.9347 h -4.191 v 8.9347 h -5.893 v -8.9347 h -5.583 l 2.5495,-4.6501 h 3.0335 V 47.5756 c 0,-1.0556 0.2042,-2.0491 0.6203,-2.9873 0.4161,-0.9315 0.9835,-1.7457 1.7097,-2.4356 0.7186,-0.683 1.5659,-1.2211 2.5342,-1.6075 0.9684,-0.3795 2.0048,-0.5727 3.1168,-0.5727 1.1347,0 2.1938,0.1863 3.1697,0.5658 0.9759,0.3795 1.8382,0.9176 2.6024,1.6144 0.764,0.7037 1.3541,1.5179 1.7702,2.4493 0.4235,0.9313 0.6354,1.918 0.6354,2.9736 z M 73.4646,57.8418 v -8.3482 c 0,-1.4971 -0.1588,-2.5804 -0.4841,-3.2358 -0.3253,-0.6623 -0.87,-0.9935 -1.6189,-0.9935 -0.7262,0 -1.2558,0.3173 -1.5886,0.959 -0.3329,0.6417 -0.4994,1.6972 -0.4994,3.1668 v 8.4517 z m 26.9463,8.9967 -2.1711,4.5881 H 85.1676 V 40.5383 h 5.893 v 26.3002 z m 15.7654,-8.9967 -2.5268,4.6501 h -5.0079 v 8.9347 h -5.9007 V 62.4919 H 97.158 l 2.5495,-4.6501 h 3.0334 v -0.4416 c 0,-3.2081 0.7262,-6.2369 2.1712,-9.0795 0.7564,-1.4696 1.6038,-2.7459 2.5417,-3.8291 0.9381,-1.0832 2.3452,-2.401 4.2214,-3.9533 h 6.9597 c -1.9518,1.4281 -3.4723,2.7252 -4.5541,3.8912 -1.0893,1.166 -2.0501,2.5182 -2.8973,4.0499 -1.5811,2.8494 -2.3679,5.7885 -2.3679,8.8381 v 0.5243 z m 19.8277,13.5848 h -6.0747 v -8.9347 h -4.1833 v 8.9347 h -5.8932 v -23.851 c 0,-1.0556 0.2043,-2.0491 0.6204,-2.9873 0.416,-0.9315 0.9834,-1.7457 1.7096,-2.4356 0.7187,-0.683 1.566,-1.2211 2.5342,-1.6075 0.9684,-0.3795 2.0048,-0.5727 3.1093,-0.5727 1.1423,0 2.1939,0.1863 3.1697,0.5658 0.9758,0.3795 1.8459,0.9176 2.6023,1.6144 0.7641,0.7037 1.3541,1.5179 1.7778,2.4493 0.4161,0.9313 0.6279,1.918 0.6279,2.9736 z m -6.0747,-13.5848 v -8.3482 c 0,-1.4971 -0.1589,-2.5804 -0.4841,-3.2358 -0.3253,-0.6623 -0.8624,-0.9935 -1.6189,-0.9935 -0.7263,0 -1.2483,0.3173 -1.5811,0.959 -0.3329,0.6417 -0.4992,1.6972 -0.4992,3.1668 v 8.4517 z"
   inkscape:connector-curvature="0"
   style="fill:none;stroke:#ffffff;stroke-width:0.17640001" />
    <path
   id="_4504741601"
   class="fil0"
   d="m 79.5393,71.4266 h -6.0747 v -8.9347 h -4.191 v 8.9347 h -5.893 v -8.9347 h -5.583 l 2.5495,-4.6501 h 3.0335 V 47.5756 c 0,-1.0556 0.2042,-2.0491 0.6203,-2.9873 0.4161,-0.9315 0.9835,-1.7457 1.7097,-2.4356 0.7186,-0.683 1.5659,-1.2211 2.5342,-1.6075 0.9684,-0.3795 2.0048,-0.5727 3.1168,-0.5727 1.1347,0 2.1938,0.1863 3.1697,0.5658 0.9759,0.3795 1.8382,0.9176 2.6024,1.6144 0.764,0.7037 1.3541,1.5179 1.7702,2.4493 0.4235,0.9313 0.6354,1.918 0.6354,2.9736 z M 73.4646,57.8418 v -8.3482 c 0,-1.4971 -0.1588,-2.5804 -0.4841,-3.2358 -0.3253,-0.6623 -0.87,-0.9935 -1.6189,-0.9935 -0.7262,0 -1.2558,0.3173 -1.5886,0.959 -0.3329,0.6417 -0.4994,1.6972 -0.4994,3.1668 v 8.4517 z m 26.9463,8.9967 -2.1711,4.5881 H 85.1676 V 40.5383 h 5.893 v 26.3002 z m 15.7654,-8.9967 -2.5268,4.6501 h -5.0079 v 8.9347 h -5.9007 V 62.4919 H 97.158 l 2.5495,-4.6501 h 3.0334 v -0.4416 c 0,-3.2081 0.7262,-6.2369 2.1712,-9.0795 0.7564,-1.4696 1.6038,-2.7459 2.5417,-3.8291 0.9381,-1.0832 2.3452,-2.401 4.2214,-3.9533 h 6.9597 c -1.9518,1.4281 -3.4723,2.7252 -4.5541,3.8912 -1.0893,1.166 -2.0501,2.5182 -2.8973,4.0499 -1.5811,2.8494 -2.3679,5.7885 -2.3679,8.8381 v 0.5243 z m 19.8277,13.5848 h -6.0747 v -8.9347 h -4.1833 v 8.9347 h -5.8932 v -23.851 c 0,-1.0556 0.2043,-2.0491 0.6204,-2.9873 0.416,-0.9315 0.9834,-1.7457 1.7096,-2.4356 0.7187,-0.683 1.566,-1.2211 2.5342,-1.6075 0.9684,-0.3795 2.0048,-0.5727 3.1093,-0.5727 1.1423,0 2.1939,0.1863 3.1697,0.5658 0.9758,0.3795 1.8459,0.9176 2.6023,1.6144 0.7641,0.7037 1.3541,1.5179 1.7778,2.4493 0.4161,0.9313 0.6279,1.918 0.6279,2.9736 z m -6.0747,-13.5848 v -8.3482 c 0,-1.4971 -0.1589,-2.5804 -0.4841,-3.2358 -0.3253,-0.6623 -0.8624,-0.9935 -1.6189,-0.9935 -0.7263,0 -1.2483,0.3173 -1.5811,0.959 -0.3329,0.6417 -0.4992,1.6972 -0.4992,3.1668 v 8.4517 z"
   inkscape:connector-curvature="0"
   style="fill:#ffffff" />
   </g><g
       id="g5574">
    <path
   class="fil8 str4"
   d="m 78.0955,72.9856 h -6.0747 v -8.9347 h -4.1909 v 8.9347 h -5.8931 v -8.9347 h -5.5829 l 2.5493,-4.65 h 3.0336 V 49.1346 c 0,-1.0556 0.2042,-2.0491 0.6203,-2.9873 0.416,-0.9315 0.9834,-1.7457 1.7096,-2.4356 0.7188,-0.683 1.566,-1.2211 2.5344,-1.6075 0.9682,-0.3795 2.0046,-0.5727 3.1167,-0.5727 1.1347,0 2.1939,0.1863 3.1697,0.5658 0.9758,0.3795 1.8383,0.9176 2.6023,1.6144 0.7641,0.7037 1.3541,1.5179 1.7702,2.4494 0.4237,0.9313 0.6355,1.9179 0.6355,2.9735 z M 72.0208,59.4009 v -8.3482 c 0,-1.4972 -0.1588,-2.5805 -0.4841,-3.2359 -0.3253,-0.6624 -0.87,-0.9935 -1.6189,-0.9935 -0.7263,0 -1.2557,0.3174 -1.5886,0.959 -0.333,0.6417 -0.4993,1.6973 -0.4993,3.1668 v 8.4518 z m 26.9463,8.9967 -2.1711,4.588 H 83.7237 V 42.0973 h 5.8932 v 26.3003 z m 15.7653,-8.9967 -2.5266,4.65 h -5.008 v 8.9347 h -5.9007 v -8.9347 h -5.5828 l 2.5493,-4.65 h 3.0335 v -0.4416 c 0,-3.2082 0.7263,-6.237 2.1711,-9.0795 0.7566,-1.4696 1.6038,-2.746 2.5419,-3.8292 0.9381,-1.0833 2.3452,-2.401 4.2212,-3.9533 h 6.9598 c -1.9518,1.4281 -3.4723,2.7252 -4.5541,3.8912 -1.0894,1.1659 -2.0502,2.5183 -2.8974,4.0499 -1.5811,2.8495 -2.3678,5.7886 -2.3678,8.8381 v 0.5244 z m 19.8278,13.5847 h -6.0746 v -8.9347 h -4.1835 v 8.9347 h -5.893 v -23.851 c 0,-1.0556 0.2042,-2.0491 0.6203,-2.9873 0.4161,-0.9315 0.9834,-1.7457 1.7097,-2.4356 0.7186,-0.683 1.5659,-1.2211 2.5342,-1.6075 0.9682,-0.3795 2.0046,-0.5727 3.1092,-0.5727 1.1423,0 2.1938,0.1863 3.1696,0.5658 0.976,0.3795 1.8459,0.9176 2.6024,1.6144 0.764,0.7037 1.3542,1.5179 1.7777,2.4494 0.4161,0.9313 0.628,1.9179 0.628,2.9735 z m -6.0746,-13.5847 v -8.3482 c 0,-1.4972 -0.1589,-2.5805 -0.4843,-3.2359 -0.3252,-0.6624 -0.8623,-0.9935 -1.6188,-0.9935 -0.7263,0 -1.2482,0.3174 -1.5811,0.959 -0.3328,0.6417 -0.4993,1.6973 -0.4993,3.1668 v 8.4518 z"
   id="path5571"
   inkscape:connector-curvature="0"
   style="fill:none;stroke:#000000;stroke-width:0.70560002" />
    <path
   id="1"
   class="fil9"
   d="m 78.0955,72.9856 h -6.0747 v -8.9347 h -4.1909 v 8.9347 h -5.8931 v -8.9347 h -5.5829 l 2.5493,-4.65 h 3.0336 V 49.1346 c 0,-1.0556 0.2042,-2.0491 0.6203,-2.9873 0.416,-0.9315 0.9834,-1.7457 1.7096,-2.4356 0.7188,-0.683 1.566,-1.2211 2.5344,-1.6075 0.9682,-0.3795 2.0046,-0.5727 3.1167,-0.5727 1.1347,0 2.1939,0.1863 3.1697,0.5658 0.9758,0.3795 1.8383,0.9176 2.6023,1.6144 0.7641,0.7037 1.3541,1.5179 1.7702,2.4494 0.4237,0.9313 0.6355,1.9179 0.6355,2.9735 z M 72.0208,59.4009 v -8.3482 c 0,-1.4972 -0.1588,-2.5805 -0.4841,-3.2359 -0.3253,-0.6624 -0.87,-0.9935 -1.6189,-0.9935 -0.7263,0 -1.2557,0.3174 -1.5886,0.959 -0.333,0.6417 -0.4993,1.6973 -0.4993,3.1668 v 8.4518 z m 26.9463,8.9967 -2.1711,4.588 H 83.7237 V 42.0973 h 5.8932 v 26.3003 z m 15.7653,-8.9967 -2.5266,4.65 h -5.008 v 8.9347 h -5.9007 v -8.9347 h -5.5828 l 2.5493,-4.65 h 3.0335 v -0.4416 c 0,-3.2082 0.7263,-6.237 2.1711,-9.0795 0.7566,-1.4696 1.6038,-2.746 2.5419,-3.8292 0.9381,-1.0833 2.3452,-2.401 4.2212,-3.9533 h 6.9598 c -1.9518,1.4281 -3.4723,2.7252 -4.5541,3.8912 -1.0894,1.1659 -2.0502,2.5183 -2.8974,4.0499 -1.5811,2.8495 -2.3678,5.7886 -2.3678,8.8381 v 0.5244 z m 19.8278,13.5847 h -6.0746 v -8.9347 h -4.1835 v 8.9347 h -5.893 v -23.851 c 0,-1.0556 0.2042,-2.0491 0.6203,-2.9873 0.4161,-0.9315 0.9834,-1.7457 1.7097,-2.4356 0.7186,-0.683 1.5659,-1.2211 2.5342,-1.6075 0.9682,-0.3795 2.0046,-0.5727 3.1092,-0.5727 1.1423,0 2.1938,0.1863 3.1696,0.5658 0.976,0.3795 1.8459,0.9176 2.6024,1.6144 0.764,0.7037 1.3542,1.5179 1.7777,2.4494 0.4161,0.9313 0.628,1.9179 0.628,2.9735 z m -6.0746,-13.5847 v -8.3482 c 0,-1.4972 -0.1589,-2.5805 -0.4843,-3.2359 -0.3252,-0.6624 -0.8623,-0.9935 -1.6188,-0.9935 -0.7263,0 -1.2482,0.3174 -1.5811,0.959 -0.3328,0.6417 -0.4993,1.6973 -0.4993,3.1668 v 8.4518 z"
   style="fill:#ff1a00;fill-opacity:1"
   inkscape:connector-curvature="0" />
   </g><g
       id="g5578">
    <line
   class="fil8 str3"
   x1="62.0364"
   y1="47.807701"
   x2="134.673"
   y2="45.1012"
   id="line5576"
   style="fill:none;stroke:#ffffff;stroke-width:0.17640001" />
   </g><g
       id="g5582">
    <line
   class="fil8 str3"
   x1="61.731899"
   y1="70.077499"
   x2="134.774"
   y2="45.338299"
   id="line5580"
   style="fill:none;stroke:#ffffff;stroke-width:0.17640001" />
   </g><g
       id="g5586">
    <line
   class="fil8 str3"
   x1="62.340801"
   y1="62.4963"
   x2="131.26199"
   y2="45.7048"
   id="line5584"
   style="fill:none;stroke:#ffffff;stroke-width:0.17640001" />
   </g><g
       id="g5590">
    <line
   class="fil8 str3"
   x1="62.3074"
   y1="55.383202"
   x2="133.405"
   y2="45.4105"
   id="line5588"
   style="fill:none;stroke:#ffffff;stroke-width:0.17640001" />
   </g><g
       id="g5594">
    <line
   class="fil8 str3"
   x1="84.463097"
   y1="70.162804"
   x2="134.576"
   y2="45.104698"
   id="line5592"
   style="fill:none;stroke:#ffffff;stroke-width:0.17640001" />
   </g></g><g
     id="g5798"
     style="fill:#ffe6d5">
    <path
   style="fill:#ffe6d5;fill-rule:nonzero;stroke:#ffffff;stroke-linecap:round;stroke-linejoin:round"
   inkscape:connector-curvature="0"
   id="path5794"
   d="m 230.156,44.7449 h 6.3082 v 5.6278 l 6.6168,-5.6278 h 8.3853 l -7.4395,5.6175 7.7724,9.2756 h -7.7724 l -4.3018,-6.1271 -3.2608,2.4896 v 3.6375 h -6.3082 z m -8.618,8.8075 5.5282,1.2205 c -0.3711,1.1304 -0.9552,2.0738 -1.754,2.8332 -0.7984,0.7595 -1.7922,1.3313 -2.9758,1.7165 -1.1836,0.3884 -2.6905,0.5789 -4.516,0.5789 -2.2199,0 -4.0357,-0.2358 -5.4379,-0.7039 -1.407,-0.4716 -2.624,-1.3002 -3.6461,-2.4861 -1.0173,-1.186 -1.5307,-2.7013 -1.5307,-4.5493 0,-2.4655 0.8986,-4.3622 2.6955,-5.6835 1.7969,-1.3247 4.3399,-1.9868 7.6243,-1.9868 2.5718,0 4.5923,0.378 6.0657,1.1373 1.4738,0.7592 2.5669,1.9244 3.2805,3.4953 l -5.5716,0.905 c -0.1949,-0.4544 -0.3994,-0.787 -0.6128,-0.9988 -0.3518,-0.35 -0.7843,-0.6206 -1.2934,-0.811 -0.5133,-0.1911 -1.0838,-0.2845 -1.7158,-0.2845 -1.4262,0 -2.5246,0.4193 -3.2848,1.2586 -0.5755,0.6239 -0.8653,1.6018 -0.8653,2.9371 0,1.6537 0.3471,2.7845 1.0315,3.3982 0.6892,0.6137 1.6542,0.9186 2.8949,0.9186 1.2075,0 2.12,-0.2461 2.7383,-0.742 0.618,-0.4924 1.0646,-1.21 1.3453,-2.1533 z m -24.0676,-8.8075 h 6.2988 v 8.8805 c 0,0.8805 -0.1903,1.7096 -0.5661,2.4931 -0.3755,0.7801 -0.9647,1.4669 -1.7683,2.0526 -0.8034,0.5864 -1.6446,0.9953 -2.5288,1.2347 -1.2265,0.3296 -2.6955,0.4957 -4.4161,0.4957 -0.9934,0 -2.0773,-0.0484 -3.2514,-0.1523 -1.1743,-0.1007 -2.1535,-0.3019 -2.9424,-0.6036 -0.7894,-0.3016 -1.5119,-0.7317 -2.168,-1.2863 -0.6557,-0.5548 -1.1027,-1.1271 -1.3448,-1.7165 -0.39,-0.9465 -0.5849,-1.7856 -0.5849,-2.5174 v -8.8805 h 6.2983 v 9.092 c 0,0.815 0.3094,1.4495 0.9222,1.9037 0.6184,0.4574 1.4738,0.6864 2.5717,0.6864 1.0842,0 1.94,-0.2254 2.5579,-0.6762 0.613,-0.447 0.9219,-1.0887 0.9219,-1.9139 z m -28.5595,6.0335 h 2.6617 c 0.285,0 0.8416,-0.0657 1.6687,-0.2012 0.4183,-0.0621 0.7606,-0.2184 1.0268,-0.468 0.2614,-0.2496 0.3942,-0.5375 0.3942,-0.8633 0,-0.482 -0.2091,-0.8496 -0.6274,-1.1061 -0.4182,-0.2602 -1.2025,-0.3885 -2.3527,-0.3885 h -2.7713 z m -6.3366,8.8596 V 44.7449 h 10.5145 c 1.9494,0 3.442,0.1214 4.4688,0.3676 1.0311,0.2428 1.8633,0.6934 2.4954,1.3558 0.6326,0.6587 0.9459,1.4633 0.9459,2.4098 0,0.8288 -0.2422,1.5399 -0.7222,2.1395 -0.4851,0.6002 -1.1506,1.0853 -1.9922,1.46 -0.5417,0.2358 -1.2785,0.4335 -2.2149,0.586 0.7514,0.1837 1.2974,0.3674 1.6449,0.5513 0.228,0.1214 0.5656,0.3815 1.0075,0.7802 0.4422,0.4022 0.7367,0.7074 0.8841,0.9262 l 3.052,4.3167 h -7.1305 l -3.3701,-4.5527 c -0.4277,-0.5863 -0.8082,-0.9709 -1.1459,-1.1478 -0.4517,-0.2288 -0.9697,-0.3434 -1.5448,-0.3434 h -0.5559 V 59.638 Z M 146.6972,48.1187 v 8.135 h 1.5446 c 1.3216,0 2.2583,-0.104 2.8142,-0.3191 0.5563,-0.2114 0.9937,-0.5858 1.3121,-1.1162 0.3137,-0.5309 0.4706,-1.3942 0.4706,-2.5871 0,-1.5775 -0.3515,-2.6562 -1.0555,-3.2387 -0.7083,-0.5825 -1.8775,-0.8739 -3.5128,-0.8739 z m -6.3078,-3.3738 h 9.374 c 1.8444,0 3.3371,0.1839 4.4775,0.5479 1.1364,0.3674 2.0775,0.891 2.819,1.5742 0.7418,0.6866 1.2787,1.4806 1.6164,2.3893 0.3326,0.9084 0.4993,1.8689 0.4993,2.8851 0,1.5913 -0.2474,2.8259 -0.7465,3.703 -0.4942,0.8773 -1.1836,1.6124 -2.0678,2.202 -0.8798,0.5931 -1.8255,0.9884 -2.8379,1.1861 -1.3833,0.2703 -2.6381,0.4055 -3.76,0.4055 h -9.374 z"
   class="fil13 str6" />
    <path
   inkscape:connector-curvature="0"
   style="fill:#ffe6d5;fill-rule:nonzero"
   d="m 230.156,44.7449 h 6.3082 v 5.6278 l 6.6168,-5.6278 h 8.3853 l -7.4395,5.6175 7.7724,9.2756 h -7.7724 l -4.3018,-6.1271 -3.2608,2.4896 v 3.6375 h -6.3082 z m -8.618,8.8075 5.5282,1.2205 c -0.3711,1.1304 -0.9552,2.0738 -1.754,2.8332 -0.7984,0.7595 -1.7922,1.3313 -2.9758,1.7165 -1.1836,0.3884 -2.6905,0.5789 -4.516,0.5789 -2.2199,0 -4.0357,-0.2358 -5.4379,-0.7039 -1.407,-0.4716 -2.624,-1.3002 -3.6461,-2.4861 -1.0173,-1.186 -1.5307,-2.7013 -1.5307,-4.5493 0,-2.4655 0.8986,-4.3622 2.6955,-5.6835 1.7969,-1.3247 4.3399,-1.9868 7.6243,-1.9868 2.5718,0 4.5923,0.378 6.0657,1.1373 1.4738,0.7592 2.5669,1.9244 3.2805,3.4953 l -5.5716,0.905 c -0.1949,-0.4544 -0.3994,-0.787 -0.6128,-0.9988 -0.3518,-0.35 -0.7843,-0.6206 -1.2934,-0.811 -0.5133,-0.1911 -1.0838,-0.2845 -1.7158,-0.2845 -1.4262,0 -2.5246,0.4193 -3.2848,1.2586 -0.5755,0.6239 -0.8653,1.6018 -0.8653,2.9371 0,1.6537 0.3471,2.7845 1.0315,3.3982 0.6892,0.6137 1.6542,0.9186 2.8949,0.9186 1.2075,0 2.12,-0.2461 2.7383,-0.742 0.618,-0.4924 1.0646,-1.21 1.3453,-2.1533 z m -24.0676,-8.8075 h 6.2988 v 8.8805 c 0,0.8805 -0.1903,1.7096 -0.5661,2.4931 -0.3755,0.7801 -0.9647,1.4669 -1.7683,2.0526 -0.8034,0.5864 -1.6446,0.9953 -2.5288,1.2347 -1.2265,0.3296 -2.6955,0.4957 -4.4161,0.4957 -0.9934,0 -2.0773,-0.0484 -3.2514,-0.1523 -1.1743,-0.1007 -2.1535,-0.3019 -2.9424,-0.6036 -0.7894,-0.3016 -1.5119,-0.7317 -2.168,-1.2863 -0.6557,-0.5548 -1.1027,-1.1271 -1.3448,-1.7165 -0.39,-0.9465 -0.5849,-1.7856 -0.5849,-2.5174 v -8.8805 h 6.2983 v 9.092 c 0,0.815 0.3094,1.4495 0.9222,1.9037 0.6184,0.4574 1.4738,0.6864 2.5717,0.6864 1.0842,0 1.94,-0.2254 2.5579,-0.6762 0.613,-0.447 0.9219,-1.0887 0.9219,-1.9139 z m -28.5595,6.0335 h 2.6617 c 0.285,0 0.8416,-0.0657 1.6687,-0.2012 0.4183,-0.0621 0.7606,-0.2184 1.0268,-0.468 0.2614,-0.2496 0.3942,-0.5375 0.3942,-0.8633 0,-0.482 -0.2091,-0.8496 -0.6274,-1.1061 -0.4182,-0.2602 -1.2025,-0.3885 -2.3527,-0.3885 h -2.7713 z m -6.3366,8.8596 V 44.7449 h 10.5145 c 1.9494,0 3.442,0.1214 4.4688,0.3676 1.0311,0.2428 1.8633,0.6934 2.4954,1.3558 0.6326,0.6587 0.9459,1.4633 0.9459,2.4098 0,0.8288 -0.2422,1.5399 -0.7222,2.1395 -0.4851,0.6002 -1.1506,1.0853 -1.9922,1.46 -0.5417,0.2358 -1.2785,0.4335 -2.2149,0.586 0.7514,0.1837 1.2974,0.3674 1.6449,0.5513 0.228,0.1214 0.5656,0.3815 1.0075,0.7802 0.4422,0.4022 0.7367,0.7074 0.8841,0.9262 l 3.052,4.3167 h -7.1305 l -3.3701,-4.5527 c -0.4277,-0.5863 -0.8082,-0.9709 -1.1459,-1.1478 -0.4517,-0.2288 -0.9697,-0.3434 -1.5448,-0.3434 h -0.5559 V 59.638 Z M 146.6972,48.1187 v 8.135 h 1.5446 c 1.3216,0 2.2583,-0.104 2.8142,-0.3191 0.5563,-0.2114 0.9937,-0.5858 1.3121,-1.1162 0.3137,-0.5309 0.4706,-1.3942 0.4706,-2.5871 0,-1.5775 -0.3515,-2.6562 -1.0555,-3.2387 -0.7083,-0.5825 -1.8775,-0.8739 -3.5128,-0.8739 z m -6.3078,-3.3738 h 9.374 c 1.8444,0 3.3371,0.1839 4.4775,0.5479 1.1364,0.3674 2.0775,0.891 2.819,1.5742 0.7418,0.6866 1.2787,1.4806 1.6164,2.3893 0.3326,0.9084 0.4993,1.8689 0.4993,2.8851 0,1.5913 -0.2474,2.8259 -0.7465,3.703 -0.4942,0.8773 -1.1836,1.6124 -2.0678,2.202 -0.8798,0.5931 -1.8255,0.9884 -2.8379,1.1861 -1.3833,0.2703 -2.6381,0.4055 -3.76,0.4055 h -9.374 z"
   class="fil14"
   id="path5796" />
   </g></g>
   
   
  </g>
 </g>
</svg>